<svg id="bell" width="30" height="30" viewBox="0 0 30 30" fill="none" xmlns="http://www.w3.org/2000/svg">
<path d="M15.9012 6.25377L14.0687 6.25002C9.88871 6.24002 6.25995 9.63627 6.2312 13.75V18.4875C6.2312 19.475 6.1062 20.4388 5.56745 21.26L5.2087 21.8075C4.66245 22.6375 5.24995 23.75 6.2312 23.75H23.7687C24.75 23.75 25.3362 22.6375 24.7912 21.8075L24.4325 21.26C23.895 20.4388 23.7687 19.4738 23.7687 18.4863V13.7513C23.7187 9.63627 20.0812 6.26377 15.9012 6.25377V6.25377Z" stroke="white" stroke-linecap="round" stroke-linejoin="round"/>
<path d="M18.75 23.75C18.75 24.7446 18.3549 25.6984 17.6517 26.4017C16.9484 27.1049 15.9946 27.5 15 27.5C14.0054 27.5 13.0516 27.1049 12.3483 26.4017C11.6451 25.6984 11.25 24.7446 11.25 23.75" stroke="white" stroke-linecap="round" stroke-linejoin="round"/>
<path d="M15 2.5C15.663 2.5 16.2989 2.76339 16.7678 3.23223C17.2366 3.70107 17.5 4.33696 17.5 5V6.25H12.5V5C12.5 4.33696 12.7634 3.70107 13.2322 3.23223C13.7011 2.76339 14.337 2.5 15 2.5Z" stroke="white" stroke-linecap="round" stroke-linejoin="round"/>
</svg>
