<svg
  id="copy"
  width="40"
  height="40"
  viewBox="0 0 40 40"
  xmlns="http://www.w3.org/2000/svg">
<path d="M34.2849 0H10.3563C10.1599 0 9.9992 0.160714 9.9992 0.357143V2.85714C9.9992 3.05357 10.1599 3.21429 10.3563 3.21429H32.4992V33.9286C32.4992 34.125 32.6599 34.2857 32.8563 34.2857H35.3563C35.5528 34.2857 35.7135 34.125 35.7135 33.9286V1.42857C35.7135 0.638393 35.0751 0 34.2849 0ZM28.5706 5.71429H5.71348C4.92331 5.71429 4.28491 6.35268 4.28491 7.14286V30.8348C4.28491 31.2143 4.4367 31.5759 4.70455 31.8438L12.4412 39.5804C12.5394 39.6786 12.651 39.7589 12.7715 39.8259V39.9107H12.959C13.1153 39.9688 13.2804 40 13.4501 40H28.5706C29.3608 40 29.9992 39.3616 29.9992 38.5714V7.14286C29.9992 6.35268 29.3608 5.71429 28.5706 5.71429ZM12.7671 35.3661L8.92331 31.5179H12.7671V35.3661ZM26.7849 36.7857H15.6242V30.4464C15.6242 29.4598 14.8251 28.6607 13.8385 28.6607H7.4992V8.92857H26.7849V36.7857Z"/>
</svg>
