<svg id="edit" width="20" height="20" viewBox="0 0 20 20" fill="none" xmlns="http://www.w3.org/2000/svg">
<g clip-path="url(#clip0_178_117)">
<path d="M4.54541 10.9091V14.5455C4.54541 15.0475 4.95244 15.4545 5.4545 15.4545H9.09086C9.33196 15.4545 9.56317 15.3587 9.73365 15.1882L19.7336 5.18824C20.0886 4.83321 20.0886 4.25764 19.7336 3.90261L16.0972 0.266242C15.9269 0.0958182 15.6956 0 15.4545 0C15.2134 0 14.9821 0.0958182 14.8117 0.266303L4.81171 10.2663C4.64117 10.4367 4.54541 10.668 4.54541 10.9091ZM6.36359 11.2856L15.4545 2.19473L17.8052 4.54545L8.71432 13.6364H6.36359V11.2856Z" fill="white"/>
<path d="M19.0909 9.09097C18.5888 9.09097 18.1818 9.498 18.1818 10.0001V18.1818H1.81818V1.81818H10C10.5021 1.81818 10.9091 1.41115 10.9091 0.909091C10.9091 0.40703 10.5021 0 10 0H0.909091C0.40703 0 0 0.40703 0 0.909091V19.0909C0 19.593 0.40703 20 0.909091 20H19.0909C19.593 20 20 19.593 20 19.0909V10.0001C20 9.49794 19.593 9.09097 19.0909 9.09097Z" fill="white"/>
</g>
<defs>
<clipPath id="clip0_178_117">
<rect width="20" height="20" fill="white"/>
</clipPath>
</defs>
</svg>
