<svg id="money" width="20" height="20" viewBox="0 0 20 20" fill="none" xmlns="http://www.w3.org/2000/svg">
<g clip-path="url(#clip0_178_99)">
<path d="M12.7098 7.51555L13.5913 8.0257C13.6689 8.07059 13.7954 8.07059 13.8729 8.0257L14.3749 7.73185C14.4524 7.68696 14.4524 7.6135 14.3749 7.5686L13.4934 7.05845C13.4158 7.01356 13.2893 7.01356 13.2118 7.05845L12.7098 7.3523C12.6322 7.39719 12.6322 7.47065 12.7098 7.51555Z" fill="white"/>
<path d="M19.5051 9.19294L19.5092 6.82583C19.5092 6.81767 19.5092 6.81359 19.5092 6.80543V6.80135C19.501 6.74829 19.4643 6.69524 19.3949 6.65034L7.98384 0.0673401C7.82875 -0.0224467 7.57163 -0.0224467 7.41655 0.0673401L0.613159 4.01796C0.523372 4.07101 0.486641 4.14039 0.502966 4.20977V6.45444L0.490723 6.46261L0.502966 6.47077V8.67054L0.490723 8.67871L0.502966 8.68687V10.8907L0.490723 10.8989L0.502966 10.9071V13.115L11.5059 19.4858L12.163 19.8653L12.3916 20L19.4929 15.8739L19.4969 13.6455V13.6415L19.5051 9.19294L19.5092 9.18886L19.5051 9.19294ZM3.51899 3.57311C3.45369 3.53637 3.38839 3.50372 3.31492 3.47516L6.48603 1.63453C6.535 1.67534 6.58806 1.71615 6.65336 1.75288C7.23289 2.08754 8.17157 2.08754 8.74702 1.75288C8.81232 1.71615 8.86946 1.67534 8.91844 1.63045L16.6319 6.07897C16.5299 6.1157 16.432 6.15651 16.3462 6.20957C15.7708 6.54423 15.7749 7.08703 16.3544 7.42169C16.4442 7.47475 16.5421 7.51556 16.6483 7.55229L13.4486 9.41333C13.3874 9.35211 13.3098 9.29497 13.22 9.246C12.6405 8.91134 11.7018 8.91134 11.1264 9.246C11.0815 9.27048 11.0447 9.29905 11.008 9.32762L3.31492 4.88726C3.38839 4.85869 3.45777 4.82604 3.52715 4.78523C4.1026 4.45057 4.09852 3.90776 3.51899 3.57311ZM18.6521 15.3352L12.3875 18.9715L1.3437 12.5844V11.3927L11.4937 17.2574L12.1508 17.637L12.3834 17.7717L18.6521 14.123V15.3352ZM18.6521 13.0987L12.3752 16.7432L1.3437 10.3642V9.17253L11.5059 15.0495L12.163 15.429L12.3916 15.5637L18.6521 11.9233V13.0987ZM18.6521 10.8254L12.3875 14.5353L1.3437 8.15223V6.95643L11.4937 12.8211L12.1508 13.2007L12.3834 13.3354L18.6521 9.69085V10.8254ZM18.6521 8.6583L12.3752 12.3028L1.3437 5.93613V4.7689L12.0242 10.9356C12.1834 11.0254 12.4364 11.0254 12.5915 10.9356L18.6521 7.41353V8.6583Z" fill="white"/>
<path d="M5.63311 3.43029L6.51465 3.94044C6.59219 3.98533 6.71871 3.98533 6.79626 3.94044L7.29824 3.64659C7.37579 3.6017 7.37579 3.52824 7.29824 3.48334L6.4167 2.97727C6.33916 2.93238 6.21264 2.93238 6.1351 2.97727L5.63311 3.26704C5.55557 3.31193 5.55557 3.3854 5.63311 3.43029Z" fill="white"/>
<path d="M12.2609 4.18936C11.008 3.46699 8.9796 3.46699 7.73075 4.18936C6.48597 4.91174 6.49414 6.08713 7.74707 6.80951C9 7.53188 11.0284 7.53188 12.2731 6.80951C13.5179 6.08713 13.5097 4.91174 12.2609 4.18936ZM9.64892 5.87899H8.76737V5.36884V4.87501L9.64892 4.87909V5.37292L11.665 5.377V5.88715L9.64892 5.87899Z" fill="white"/>
</g>
<defs>
<clipPath id="clip0_178_99">
<rect width="20" height="20" fill="white"/>
</clipPath>
</defs>
</svg>
