<svg
  id="unvisible"
  width="50"
  height="50"
  viewBox="0 0 50 50"
  xmlns="http://www.w3.org/2000/svg">
<path d="M14.3188 35.6854C10.4751 32.9563 7.43341 29.4063 5.71466 27.1646C5.23404 26.5458 4.97314 25.7846 4.97314 25.0011C4.97314 24.2175 5.23404 23.4563 5.71466 22.8375C8.82507 18.7771 16.2876 10.4167 25.0001 10.4167C28.9084 10.4167 32.5626 12.0979 35.6876 14.3209" stroke-width="3" stroke-linecap="round" stroke-linejoin="round"/>
<path d="M29.4377 20.5979C28.8592 20.0097 28.1699 19.5419 27.4096 19.2214C26.6493 18.9009 25.8332 18.7342 25.0081 18.7307C24.1831 18.7273 23.3655 18.8872 22.6026 19.2013C21.8397 19.5154 21.1465 19.9774 20.563 20.5607C19.9796 21.144 19.5174 21.8371 19.2031 22.6C18.8888 23.3628 18.7287 24.1803 18.732 25.0054C18.7352 25.8304 18.9018 26.6466 19.2221 27.407C19.5424 28.1673 20.0101 28.8567 20.5981 29.4354" stroke-width="3" stroke-linecap="round" stroke-linejoin="round"/>
<path d="M8.3335 41.6666L41.6668 8.33331" stroke-width="3" stroke-linecap="round" stroke-linejoin="round"/>
<path d="M20.8335 38.9667C22.186 39.3693 23.589 39.5769 25.0002 39.5833C33.7127 39.5833 41.1752 31.2229 44.2856 27.1625C44.7661 26.5431 45.0267 25.7814 45.0263 24.9976C45.0259 24.2137 44.7646 23.4522 44.2835 22.8333C43.1904 21.4073 42.0177 20.044 40.771 18.75" stroke-width="3" stroke-linecap="round" stroke-linejoin="round"/>
</svg>
