<svg 
  id="visible"
  width="50"
  height="50"
  viewBox="0 0 50 50"
  xmlns="http://www.w3.org/2000/svg">
<path d="M44.2852 22.8375C45.2727 24.1292 45.2727 25.8729 44.2852 27.1625C41.1748 31.2229 33.7123 39.5834 24.9998 39.5834C16.2873 39.5834 8.82482 31.2229 5.7144 27.1625C5.23395 26.544 4.97314 25.7832 4.97314 25C4.97314 24.2169 5.23395 23.456 5.7144 22.8375C8.82482 18.7771 16.2873 10.4167 24.9998 10.4167C33.7123 10.4167 41.1748 18.7771 44.2852 22.8375V22.8375Z" stroke-width="3" stroke-linecap="round" stroke-linejoin="round"/>
<path d="M25 31.25C28.4518 31.25 31.25 28.4518 31.25 25C31.25 21.5482 28.4518 18.75 25 18.75C21.5482 18.75 18.75 21.5482 18.75 25C18.75 28.4518 21.5482 31.25 25 31.25Z" stroke-width="3" stroke-linecap="round" stroke-linejoin="round"/>
</svg>
